# xmcd CD database file
#
# Track frame offsets:
#	150
#	25260
#	58411
#	82464
#	104269
#	128570
#	139525
#
# Disc length: 2050 seconds
#
# Revision: 2
# Processed by: cddbd v1.5.2PL0 Copyright (c) Steve Scherf et al.
# Submitted via: CDex 1.70beta3
#
DISCID=60080007
DTITLE=NeuzKraft - ありちゅでCHU!
DYEAR=2006
DGENRE=Game
TTITLE0=gp-ln - ありちゅ。
TTITLE1=gp-ln - 不思議な国のありちゅ
TTITLE2=gp-ln - アリスマエステラ [ReMix Edition]
TTITLE3=gp-ln - しろとくろのありちゅ
TTITLE4=gp-ln - Celluloid doll
TTITLE5=蓬屋ふらん - 人形裁判 ～Squarewave Dream
TTITLE6=gp-ln - ありちゅがキノコを咥えたら（以下略
EXTD=YEAR: 2006
EXTT0=
EXTT1=
EXTT2=
EXTT3=
EXTT4=
EXTT5=
EXTT6=
PLAYORDER=
